<?xml version="1.0" encoding="UTF-8" standalone="no"?>
<!-- Created with Inkscape (http://www.inkscape.org/) -->

<svg
   xmlns:dc="http://purl.org/dc/elements/1.1/"
   xmlns:cc="http://creativecommons.org/ns#"
   xmlns:rdf="http://www.w3.org/1999/02/22-rdf-syntax-ns#"
   xmlns:svg="http://www.w3.org/2000/svg"
   xmlns="http://www.w3.org/2000/svg"
   xmlns:sodipodi="http://sodipodi.sourceforge.net/DTD/sodipodi-0.dtd"
   xmlns:inkscape="http://www.inkscape.org/namespaces/inkscape"
   version="1.1"
   id="svg2"
   xml:space="preserve"
   width="512"
   height="512"
   viewBox="0 0 512.00001 511.99999"
   sodipodi:docname="ICON_LIGHT_V2.svg"
   inkscape:version="0.92.4 (5da689c313, 2019-01-14)"><metadata
     id="metadata8"><rdf:RDF><cc:Work
         rdf:about=""><dc:format>image/svg+xml</dc:format><dc:type
           rdf:resource="http://purl.org/dc/dcmitype/StillImage" /><dc:title></dc:title></cc:Work></rdf:RDF></metadata><defs
     id="defs6"><linearGradient
       x1="0"
       y1="0"
       x2="1"
       y2="0"
       gradientUnits="userSpaceOnUse"
       gradientTransform="matrix(22.821158,-25.345461,-25.345461,-22.821158,45.678585,125.6607)"
       spreadMethod="pad"
       id="linearGradient32"><stop
         style="stop-opacity:1;stop-color:#069ade"
         offset="0"
         id="stop26" /><stop
         style="stop-opacity:1;stop-color:#069ade"
         offset="0.4854273"
         id="stop28" /><stop
         style="stop-opacity:1;stop-color:#145899"
         offset="1"
         id="stop30" /></linearGradient><linearGradient
       x1="0"
       y1="0"
       x2="1"
       y2="0"
       gradientUnits="userSpaceOnUse"
       gradientTransform="matrix(23.552921,0,0,-23.552921,78.537392,103.06438)"
       spreadMethod="pad"
       id="linearGradient52"><stop
         style="stop-opacity:1;stop-color:#304d94"
         offset="0"
         id="stop48" /><stop
         style="stop-opacity:1;stop-color:#2b9f44"
         offset="1"
         id="stop50" /></linearGradient><linearGradient
       x1="0"
       y1="0"
       x2="1"
       y2="0"
       gradientUnits="userSpaceOnUse"
       gradientTransform="matrix(24.027079,26.661835,26.661835,-24.027079,44.572849,53.763279)"
       spreadMethod="pad"
       id="linearGradient74"><stop
         style="stop-opacity:1;stop-color:#069ade"
         offset="0"
         id="stop68" /><stop
         style="stop-opacity:1;stop-color:#069ade"
         offset="0.4854273"
         id="stop70" /><stop
         style="stop-opacity:1;stop-color:#145899"
         offset="1"
         id="stop72" /></linearGradient><linearGradient
       x1="0"
       y1="0"
       x2="1"
       y2="0"
       gradientUnits="userSpaceOnUse"
       gradientTransform="matrix(23.542084,0,0,-23.542084,78.546127,77.612884)"
       spreadMethod="pad"
       id="linearGradient94"><stop
         style="stop-opacity:1;stop-color:#304d94"
         offset="0"
         id="stop90" /><stop
         style="stop-opacity:1;stop-color:#2b9f44"
         offset="1"
         id="stop92" /></linearGradient><linearGradient
       x1="0"
       y1="0"
       x2="1"
       y2="0"
       gradientUnits="userSpaceOnUse"
       gradientTransform="matrix(42.171249,0,0,-42.171249,42.032642,90.349464)"
       spreadMethod="pad"
       id="linearGradient114"><stop
         style="stop-opacity:1;stop-color:#069ade"
         offset="0"
         id="stop110" /><stop
         style="stop-opacity:1;stop-color:#75d2ea"
         offset="1"
         id="stop112" /></linearGradient><linearGradient
       x1="0"
       y1="0"
       x2="1"
       y2="0"
       gradientUnits="userSpaceOnUse"
       gradientTransform="matrix(22.586979,25.085381,25.085381,-22.586979,112.17703,100.36031)"
       spreadMethod="pad"
       id="linearGradient140"><stop
         style="stop-opacity:1;stop-color:#17ad49"
         offset="0"
         id="stop130" /><stop
         style="stop-opacity:1;stop-color:#17ad49"
         offset="0.0010334"
         id="stop132" /><stop
         style="stop-opacity:1;stop-color:#59c134"
         offset="0.51481911"
         id="stop134" /><stop
         style="stop-opacity:1;stop-color:#59c134"
         offset="0.999504"
         id="stop136" /><stop
         style="stop-opacity:1;stop-color:#59c134"
         offset="1"
         id="stop138" /></linearGradient><linearGradient
       x1="0"
       y1="0"
       x2="1"
       y2="0"
       gradientUnits="userSpaceOnUse"
       gradientTransform="matrix(-23.520193,26.121819,26.121819,23.520193,135.37714,54.457127)"
       spreadMethod="pad"
       id="linearGradient166"><stop
         style="stop-opacity:1;stop-color:#59c134"
         offset="0"
         id="stop156" /><stop
         style="stop-opacity:1;stop-color:#59c134"
         offset="0.00049603"
         id="stop158" /><stop
         style="stop-opacity:1;stop-color:#59c134"
         offset="0.4851811"
         id="stop160" /><stop
         style="stop-opacity:1;stop-color:#17ad49"
         offset="0.998967"
         id="stop162" /><stop
         style="stop-opacity:1;stop-color:#17ad49"
         offset="1"
         id="stop164" /></linearGradient><linearGradient
       x1="0"
       y1="0"
       x2="1"
       y2="0"
       gradientUnits="userSpaceOnUse"
       gradientTransform="matrix(42.882893,0,0,42.882893,95.748604,90.321083)"
       spreadMethod="pad"
       id="linearGradient188"><stop
         style="stop-opacity:1;stop-color:#adda1a"
         offset="0"
         id="stop182" /><stop
         style="stop-opacity:1;stop-color:#adda1a"
         offset="0.00049603"
         id="stop184" /><stop
         style="stop-opacity:1;stop-color:#59c134"
         offset="1"
         id="stop186" /></linearGradient></defs><sodipodi:namedview
     pagecolor="#ffffff"
     bordercolor="#666666"
     borderopacity="1"
     objecttolerance="10"
     gridtolerance="10"
     guidetolerance="10"
     inkscape:pageopacity="0"
     inkscape:pageshadow="2"
     inkscape:window-width="1366"
     inkscape:window-height="664"
     id="namedview4"
     showgrid="false"
     fit-margin-top="0"
     fit-margin-left="0"
     fit-margin-right="0"
     fit-margin-bottom="0"
     inkscape:zoom="0.48989219"
     inkscape:cx="64.722549"
     inkscape:cy="456.13503"
     inkscape:window-x="1912"
     inkscape:window-y="-8"
     inkscape:window-maximized="1"
     inkscape:current-layer="g10" /><g
     id="g10"
     inkscape:groupmode="layer"
     inkscape:label="digican_cmyk"
     transform="matrix(1.3333333,0,0,-1.3333333,0,512)"><g
       id="g14"
       transform="matrix(2.1256368,0,0,2.1256368,3.1884552,0)"><g
         id="g16"><g
           id="g22"><g
             id="g24"><path
               d="m 40.889,131.695 c -0.011,0.08 -0.022,0.162 -0.033,0.242 v 0 c 0.01,-0.081 0.021,-0.162 0.033,-0.242 M 69.526,98.023 c -1.764,16.721 -9.47,25.894 -22.838,27.878 v 0 c -3.029,0.449 -5.344,2.844 -5.799,5.794 v 0 c 2.387,-17.229 12.565,-28.62 28.637,-33.672"
               style="fill:url(#linearGradient32);stroke:none"
               id="path34"
               inkscape:connector-curvature="0" /></g></g></g></g><g
       id="g36"
       transform="matrix(2.1256368,0,0,2.1256368,3.1884552,0)"><g
         id="g38"><g
           id="g44"><g
             id="g46"><path
               d="m 90.077,110.733 c -2.532,0 -4.905,0.117 -7.14,0.337 v 0 c 1.448,-4.816 2.303,-10.128 2.576,-15.864 v 0 c 1.801,-0.112 3.644,-0.171 5.535,-0.171 v 0 c 1.372,0 2.718,0.039 4.047,0.101 v 0 c 0.271,5.772 1.128,11.116 2.587,15.958 v 0 c -2.383,-0.24 -4.917,-0.361 -7.605,-0.361"
               style="fill:url(#linearGradient52);stroke:none"
               id="path54"
               inkscape:connector-curvature="0" /></g></g></g></g><g
       id="g56"
       transform="matrix(2.1256368,0,0,2.1256368,3.1884552,0)"><g
         id="g58"><g
           id="g64"><g
             id="g66"><path
               d="m 40.879,48.756 c 0.432,2.999 2.798,5.405 5.874,5.879 v 0 c 12.508,1.923 20.994,10.412 22.802,28.043 v 0 C 53.392,77.608 43.205,66.129 40.879,48.756"
               style="fill:url(#linearGradient74);stroke:none"
               id="path76"
               inkscape:connector-curvature="0" /></g></g></g></g><g
       id="g78"
       transform="matrix(2.1256368,0,0,2.1256368,3.1884552,0)"><g
         id="g80"><g
           id="g86"><g
             id="g88"><path
               d="M 85.441,85.481 C 85.075,79.7 84.14,74.385 82.637,69.595 v 0 c 2.322,0.239 4.795,0.366 7.44,0.366 v 0 c 2.802,0 5.435,-0.134 7.906,-0.394 v 0 c -1.515,4.817 -2.455,10.165 -2.818,15.987 v 0 c -1.351,0.065 -2.721,0.104 -4.117,0.104 v 0 c -1.916,0 -3.784,-0.062 -5.607,-0.177"
               style="fill:url(#linearGradient94);stroke:none"
               id="path96"
               inkscape:connector-curvature="0" /></g></g></g></g><g
       id="g98"
       transform="matrix(2.1256368,0,0,2.1256368,3.1884552,0)"><g
         id="g100"><g
           id="g106"><g
             id="g108"><path
               d="m 43.012,137.992 c -0.177,-0.163 -0.346,-0.338 -0.504,-0.519 v 0 c -0.024,-0.027 -0.044,-0.054 -0.065,-0.08 v 0 c -0.121,-0.142 -0.236,-0.289 -0.344,-0.44 v 0 c -0.074,-0.103 -0.141,-0.208 -0.207,-0.314 v 0 c -0.052,-0.079 -0.103,-0.159 -0.152,-0.24 v 0 c -0.108,-0.188 -0.209,-0.38 -0.3,-0.577 v 0 c -0.002,-0.005 -0.003,-0.008 -0.005,-0.011 v 0 c -0.401,-0.88 -0.626,-1.86 -0.626,-2.894 v 0 -0.159 c 0,-3.422 2.493,-6.355 5.879,-6.857 v 0 c 13.368,-1.984 21.074,-11.157 22.838,-27.878 v 0 c 0.26,-2.471 0.393,-5.103 0.393,-7.904 v 0 c 0,-2.645 -0.127,-5.119 -0.364,-7.441 v 0 C 67.747,65.047 59.261,56.56 46.753,54.635 v 0 c -3.408,-0.525 -5.944,-3.42 -5.944,-6.868 v 0 c 0,-1.043 0.228,-2.022 0.633,-2.9 v 0 c 0.017,-0.035 0.035,-0.069 0.052,-0.104 v 0 c 0.082,-0.172 0.172,-0.34 0.269,-0.504 v 0 c 0.04,-0.068 0.083,-0.134 0.126,-0.2 v 0 c 0.082,-0.13 0.167,-0.257 0.258,-0.379 v 0 c 0.06,-0.084 0.126,-0.165 0.19,-0.245 v 0 c 0.084,-0.103 0.167,-0.203 0.255,-0.302 v 0 c 0.079,-0.088 0.163,-0.171 0.246,-0.255 v 0 c 0.083,-0.083 0.166,-0.166 0.254,-0.245 v 0 c 0.098,-0.088 0.201,-0.173 0.302,-0.256 v 0 c 0.081,-0.063 0.161,-0.128 0.243,-0.189 v 0 c 0.124,-0.09 0.252,-0.177 0.382,-0.259 v 0 c 0.067,-0.042 0.131,-0.084 0.199,-0.125 v 0 c 0.164,-0.096 0.332,-0.186 0.505,-0.269 v 0 c 0.034,-0.018 0.067,-0.034 0.102,-0.051 v 0 c 0.243,-0.112 0.495,-0.207 0.754,-0.291 v 0 c 0.166,-0.057 0.338,-0.1 0.511,-0.143 v 0 c 0.068,-0.017 0.137,-0.033 0.207,-0.049 v 0 c 0.773,-0.171 1.585,-0.229 2.422,-0.117 v 0 c 17.373,2.327 28.847,12.549 33.918,28.711 v 0 c 1.503,4.79 2.438,10.105 2.804,15.886 v 0 c 0.114,1.824 0.177,3.692 0.177,5.607 v 0 c 0,1.398 -0.041,2.767 -0.105,4.118 v 0 c -0.273,5.736 -1.129,11.048 -2.576,15.864 v 0 c -4.808,15.988 -16.142,26.495 -34.418,28.75 v 0 c -0.281,0.035 -0.56,0.052 -0.836,0.052 v 0 c -1.792,0 -3.437,-0.716 -4.671,-1.88"
               style="fill:url(#linearGradient114);stroke:none"
               id="path116"
               inkscape:connector-curvature="0" /></g></g></g></g><g
       id="g118"
       transform="matrix(2.1256368,0,0,2.1256368,3.1884552,0)"><g
         id="g120"><g
           id="g126"><g
             id="g128"><path
               d="m 139.722,131.661 c 0.013,0.085 0.024,0.17 0.035,0.256 v 0 c -0.012,-0.085 -0.024,-0.171 -0.035,-0.256 m -5.798,-5.788 C 120.556,123.889 112.85,114.716 111.086,97.996 v 0 c 16.068,5.049 26.246,16.443 28.636,33.665 v 0 c -0.458,-2.948 -2.771,-5.339 -5.798,-5.788"
               style="fill:url(#linearGradient140);stroke:none"
               id="path142"
               inkscape:connector-curvature="0" /></g></g></g></g><g
       id="g144"
       transform="matrix(2.1256368,0,0,2.1256368,3.1884552,0)"><g
         id="g146"><g
           id="g152"><g
             id="g154"><path
               d="m 133.859,54.605 c 3.08,-0.474 5.447,-2.883 5.875,-5.888 v 0 C 137.408,66.092 127.22,77.58 111.058,82.65 v 0 c 1.807,-17.632 10.293,-26.12 22.801,-28.045"
               style="fill:url(#linearGradient166);stroke:none"
               id="path168"
               inkscape:connector-curvature="0" /></g></g></g></g><g
       id="g170"
       transform="matrix(2.1256368,0,0,2.1256368,3.1884552,0)"><g
         id="g172"><g
           id="g178"><g
             id="g180"><path
               d="m 132.093,139.792 c -18.276,-2.256 -29.61,-12.763 -34.418,-28.751 v 0 c -1.447,-4.815 -2.303,-10.128 -2.577,-15.862 v 0 C 95.035,93.827 94.994,92.458 94.994,91.06 v 0 c 0,-1.916 0.063,-3.783 0.177,-5.607 v 0 c 0.366,-5.781 1.301,-11.096 2.804,-15.886 v 0 c 5.071,-16.162 16.545,-26.385 33.919,-28.711 v 0 c 0.836,-0.112 1.648,-0.054 2.421,0.117 v 0 c 0.07,0.015 0.139,0.032 0.207,0.048 v 0 c 0.173,0.044 0.345,0.087 0.511,0.144 v 0 c 0.259,0.084 0.511,0.178 0.754,0.291 v 0 c 0.035,0.016 0.068,0.033 0.102,0.05 v 0 c 0.173,0.084 0.34,0.173 0.505,0.27 v 0 c 0.068,0.04 0.133,0.083 0.199,0.125 v 0 c 0.13,0.082 0.258,0.168 0.382,0.259 v 0 c 0.082,0.061 0.162,0.125 0.242,0.19 v 0 c 0.102,0.082 0.205,0.166 0.303,0.255 v 0 c 0.087,0.079 0.171,0.161 0.254,0.244 v 0 c 0.083,0.085 0.166,0.168 0.246,0.256 v 0 c 0.088,0.098 0.171,0.199 0.255,0.302 v 0 c 0.064,0.08 0.13,0.161 0.19,0.244 v 0 c 0.091,0.123 0.176,0.25 0.258,0.38 v 0 c 0.043,0.066 0.086,0.132 0.126,0.2 v 0 c 0.097,0.164 0.187,0.333 0.269,0.504 v 0 c 0.017,0.035 0.035,0.069 0.051,0.104 v 0 c 0.406,0.877 0.634,1.857 0.634,2.899 v 0 c 0,3.449 -2.536,6.343 -5.944,6.867 v 0 C 121.351,56.53 112.865,65.018 111.058,82.65 v 0 c -0.238,2.322 -0.365,4.795 -0.365,7.441 v 0 c 0,2.8 0.132,5.433 0.393,7.905 v 0 c 1.764,16.72 9.47,25.893 22.838,27.877 v 0 c 3.386,0.502 5.879,3.434 5.879,6.857 v 0 0.159 c 0,1.034 -0.225,2.013 -0.626,2.893 v 0 c -0.002,0.004 -0.003,0.007 -0.005,0.011 v 0 c -0.091,0.198 -0.192,0.39 -0.3,0.578 v 0 c -0.049,0.081 -0.1,0.161 -0.152,0.24 v 0 c -0.066,0.106 -0.133,0.211 -0.207,0.313 v 0 c -0.108,0.151 -0.223,0.298 -0.344,0.44 v 0 c -0.021,0.026 -0.041,0.054 -0.065,0.08 v 0 c -0.158,0.182 -0.328,0.356 -0.504,0.521 v 0 c -1.234,1.164 -2.88,1.879 -4.673,1.879 v 0 c -0.275,0 -0.553,-0.017 -0.834,-0.052"
               style="fill:url(#linearGradient188);stroke:none"
               id="path190"
               inkscape:connector-curvature="0" /></g></g></g></g></g></svg>